<svg width="51" height="48" viewBox="0 0 51 48" fill="none" xmlns="http://www.w3.org/2000/svg">
<path d="M14.2438 36.975C12.322 36.975 10.75 38.5105 10.75 40.3876C10.75 42.2646 12.322 43.8001 14.2438 43.8001C16.1655 43.8001 17.7376 42.2646 17.7376 40.3876C17.7375 38.5104 16.1654 36.975 14.2438 36.975ZM4.03125 10.2V13.6125H7.525L13.814 26.0552L11.1846 30.235C10.9228 30.6616 10.7479 31.2589 10.7479 31.8563C10.7479 34.1409 12.3457 35.2689 14.5125 35.2689H34.9375V31.9876H14.9402C14.6784 31.9876 14.5035 31.8168 14.5035 31.561C14.5035 31.4761 14.6889 31.1345 14.6889 31.1345L16.4342 28.4439H29.4479C30.7582 28.4439 31.8942 27.7616 32.505 26.6526L38.7939 16.087C38.8978 15.8851 38.9688 15.5746 38.9688 15.2339C38.9688 14.295 38.1823 13.6126 37.2219 13.6126H11.3685L9.70859 10.2H4.03125ZM31.4437 36.975C29.5219 36.975 27.9499 38.5105 27.9499 40.3876C27.9499 42.2646 29.5219 43.8001 31.4437 43.8001C33.3654 43.8001 34.9375 42.2646 34.9375 40.3875C34.9375 38.5104 33.3654 36.975 31.4437 36.975Z" fill="white"/>
<circle cx="40.5" cy="10.5" r="10.5" fill="#CF052D"/>
<path d="M40.17 16.225C39.58 16.225 39.02 16.12 38.49 15.91C37.97 15.7 37.52 15.385 37.14 14.965C36.77 14.545 36.51 14.025 36.36 13.405L38.34 13.06C38.47 13.47 38.69 13.79 39 14.02C39.31 14.25 39.685 14.365 40.125 14.365C40.445 14.365 40.725 14.305 40.965 14.185C41.215 14.065 41.41 13.905 41.55 13.705C41.69 13.495 41.76 13.25 41.76 12.97C41.76 12.7 41.69 12.465 41.55 12.265C41.41 12.055 41.21 11.895 40.95 11.785C40.7 11.665 40.41 11.605 40.08 11.605H38.985V9.775H39.975C40.295 9.775 40.57 9.72 40.8 9.61C41.04 9.5 41.225 9.35 41.355 9.16C41.485 8.96 41.55 8.735 41.55 8.485C41.55 8.135 41.42 7.85 41.16 7.63C40.91 7.4 40.58 7.285 40.17 7.285C39.79 7.285 39.45 7.395 39.15 7.615C38.86 7.825 38.655 8.14 38.535 8.56L36.555 8.215C36.665 7.665 36.89 7.18 37.23 6.76C37.58 6.34 38.015 6.015 38.535 5.785C39.055 5.545 39.63 5.425 40.26 5.425C40.74 5.425 41.185 5.495 41.595 5.635C42.015 5.775 42.38 5.975 42.69 6.235C43 6.485 43.24 6.785 43.41 7.135C43.58 7.485 43.665 7.87 43.665 8.29C43.665 8.8 43.54 9.255 43.29 9.655C43.04 10.045 42.68 10.355 42.21 10.585C42.74 10.785 43.155 11.1 43.455 11.53C43.765 11.96 43.92 12.465 43.92 13.045C43.92 13.495 43.825 13.915 43.635 14.305C43.445 14.695 43.18 15.035 42.84 15.325C42.5 15.605 42.1 15.825 41.64 15.985C41.19 16.145 40.7 16.225 40.17 16.225Z" fill="white"/>
</svg>
