<svg width="110" height="22" viewBox="0 0 110 22" fill="none" xmlns="http://www.w3.org/2000/svg">
<path d="M11 16.0139L16.3638 19.25L14.9449 13.1456L19.6797 9.04101L13.4377 8.50498L11 2.75L8.56182 8.50498L2.32031 9.04101L7.05513 13.1456L5.63582 19.25L11 16.0139Z" fill="#CF052D"/>
<path d="M33 16.0139L38.3638 19.25L36.9449 13.1456L41.6797 9.04101L35.4377 8.50498L33 2.75L30.5618 8.50498L24.3203 9.04101L29.0551 13.1456L27.6358 19.25L33 16.0139Z" fill="#CF052D"/>
<path d="M55 16.0139L60.3638 19.25L58.9449 13.1456L63.6797 9.04101L57.4377 8.50498L55 2.75L52.5618 8.50498L46.3203 9.04101L51.0551 13.1456L49.6358 19.25L55 16.0139Z" fill="#CF052D"/>
<path d="M77 16.0139L82.3638 19.25L80.9449 13.1456L85.6797 9.04101L79.4377 8.50498L77 2.75L74.5618 8.50498L68.3203 9.04101L73.0551 13.1456L71.6358 19.25L77 16.0139Z" fill="#CF052D"/>
<path d="M107.68 9.04101L101.438 8.50493L99 2.75L96.5618 8.50498L90.3203 9.04101L95.0551 13.1456L93.6358 19.25L99 16.0139L104.364 19.25L102.945 13.1456L107.68 9.04101ZM99.7103 14.8365L99 14.408L98.9999 6.27498L100.172 9.04127L100.495 9.80401L101.32 9.87491L104.321 10.1326L102.044 12.1066L101.418 12.6495L101.606 13.4568L102.288 16.3915L99.7103 14.8365Z" fill="#CF052D"/>
</svg>
